<?xml version="1.0" encoding="UTF-8"?><svg id="a" xmlns="http://www.w3.org/2000/svg" xmlns:xlink="http://www.w3.org/1999/xlink" viewBox="0 0 1049.65 466.04" width="150" height="67"><defs><style>.c{fill:#630084;}.d{fill:#a4d555;}.e{fill:#00b1eb;}</style><linearGradient id="b" x1="249.4" y1="638.95" x2="810.43" y2="77.92" gradientTransform="matrix(1, 0, 0, 1, 0, 0)" gradientUnits="userSpaceOnUse"><stop offset="0" stop-color="#630084"/><stop offset="1" stop-color="#841983"/></linearGradient></defs><g><path class="d" d="M1039.41,434.52v-5h-436.56c-.09,1.73-.32,3.39-.68,5h437.24Z"/><path class="d" d="M228.54,131.91c.09-.57,.2-1.14,.3-1.71h-81.34c-.63,1.69-1.25,3.36-1.86,5h82.41c.15-1.09,.31-2.19,.49-3.29Z"/><path class="d" d="M275.86,135.2h44.69c1.79-1.43,3.58-2.9,5.37-4.43,.22-.19,.44-.38,.67-.57h-49.86c-.08,.39-.17,.79-.24,1.18-.25,1.31-.46,2.58-.63,3.82Z"/><path class="d" d="M615.55,132.6l-.15,.15-.16,.14c-.9,.79-1.77,1.56-2.64,2.32h426.81v-5h-421.54c-.73,.81-1.5,1.61-2.32,2.39Z"/><path class="d" d="M385.34,28.82c-.02,.14-.02,.26-.04,.4-.2,1.64-.48,3.32-.82,5.03h654.93v-5.58l-654.07,.15Z"/><path class="d" d="M213.5,30.51c-.58,1.3-1.29,2.55-2.1,3.74h65.25c1.01-1.17,2-2.35,3.03-3.49,.58-.64,1.17-1.28,1.75-1.91l-67.28,.02c-.19,.55-.4,1.1-.65,1.65Z"/><path class="d" d="M149.01,231.13v.21l-.05,1.32c.12,.72,.53,2.14,1.83,4.05h888.62v-5.58H149.01Z"/><path class="d" d="M55.16,429.23H11.16v-94.62H44.8c-.15-1.65-.27-3.31-.35-5H11.16v-92.9H100.54c0-1.91-.62-5.58-.62-5.58H11.16v-95.93H98.79c.65-1.68,1.3-3.34,1.95-5H11.16V34.24H108.07c.65-.76,1.35-1.52,2.17-2.26,1.14-1.03,2.44-2.06,3.92-3.1l-114.15,.03V434.55H53.99c.23-1.78,.62-3.56,1.16-5.31Z"/><path class="d" d="M140.15,430.43c-.37,1.47-.72,2.81-1.1,4.09h403.89c-.41-1.61-.67-3.28-.8-5H140.38l-.23,.91Z"/></g><path class="c" d="M64.2,366.99c-6.61-12.45-9.91-27.03-9.91-43.74s3.3-31.06,9.91-43.51c6.61-12.45,15.95-22.02,28.02-28.71,6.91-3.83,14.53-6.49,22.76-8.12,.33,5.32,.73,11.48,1.18,18.25,.34,5.25,.71,10.89,1.09,16.8-4.21,2-7.8,4.72-10.68,8.27-6.61,8.13-9.91,20.47-9.91,37.02s3.3,29.13,9.91,37.25c3.88,4.77,8.96,8.13,15.23,10.1,.28,13.11,.27,24.94-.21,34.33-10.84-1.34-20.64-4.39-29.37-9.23-12.08-6.68-21.42-16.25-28.02-28.71Zm114.71-7.52c-2.13,0-3.95,.31-5.47,.91-1.52,.61-3.87,1.75-7.06,3.42-6.69,3.04-12.15,5.28-16.4,6.72-1.85,.63-3.73,1.06-5.63,1.42-.57,14.89-1.01,26.15-1.24,31.08l-.1,2.3c15.78-1.3,29.9-6.21,42.28-14.85,2.58-1.82,4.45-3.83,5.59-6.04,1.14-2.2,1.71-4.9,1.71-8.09,0-4.71-1.33-8.69-3.99-11.96-2.66-3.26-5.89-4.9-9.69-4.9Zm39.22-55.81c-2.14-12.73-9.64-22.19-19.66-29.85-8.95-6.85-19.11-11.56-29.19-16.43-1.23-.59-2.46-1.19-3.68-1.79-19.33-9.64-22.56-18.64-22.94-22.64,.03-.79,.05-1.51,.08-2.17h0l.03-.79c.07-1.82-1.32-3.35-3.13-3.5-5.04-.42-9.91-3-14.88-3.61-2.06-.25-3.85,1.39-3.8,3.46,.62,22.98,11.84,153.57,6.35,191.54-1.21,8.39-8.29,3.96-8.29,3.96-7.61-7.77-15.45-10.92-25.25-10.92-4.64,0-9.63,.89-14.81,2.64-8.48,2.87-14.89,9.01-17.59,16.85-2.58,7.52-1.43,15.83,3.16,22.79,5.54,8.4,14.12,12.84,24.83,12.84,2.54,0,5.19-.26,7.87-.77,17.94-3.41,25.95-12.53,34.08-28.1,1.42-2.73,2.02-5.45,3.15-9.84,1.17-8.11,1.45-16.42,1.82-24.62,.66-14.73,3.22-83.36,4.95-130.55,.03-.71,.27-1.39,.71-1.95,.16-.2,.26-.31,.31-.31,9.48,.53,18.68,2.5,27.54,5.86,18.18,6.9,32.01,18.54,39.61,36.83,.98,2.35,1.7,4.82,2.52,7.23,.66,1.94,2.21,2.53,4,2.26,1.29-.2,3.04-.39,2.99-2.27-.15-5.39,.11-10.87-.78-16.15Zm109.57,42.37c0,11.93-2.56,22.33-7.68,31.2-5.13,8.87-12.35,15.72-21.68,20.53-9.33,4.82-20.27,7.23-32.81,7.23s-23.29-2.41-32.69-7.23c-9.41-4.82-16.67-11.66-21.79-20.53-5.13-8.87-7.68-19.27-7.68-31.2,0-8.11,1.19-15.5,3.56-22.17,1.73,2.86,4.72,4.56,8.21,4.56,.57,0,1.15-.04,1.73-.13l.13-.02c7.8-1.16,8.25-6.91,8.2-8.64-.04-1.34-.05-2.67-.06-4.09-.03-4.19-.07-8.53-.81-12.93-.13-.79-.29-1.58-.46-2.35,2.71-2.11,5.64-3.99,8.85-5.62,9.33-4.74,20.26-7.11,32.81-7.11s23.47,2.37,32.81,7.11c9.33,4.74,16.55,11.51,21.68,20.3,5.12,8.8,7.68,19.16,7.68,31.08Zm-40.38,0c0-18.96-7.27-28.45-21.79-28.45s-21.79,9.48-21.79,28.45,7.26,28.45,21.79,28.45,21.79-9.48,21.79-28.45Zm203.03-58.5c-8.11,0-15.37,1.8-21.79,5.39-6.42,3.6-11.55,8.45-15.37,14.57-5.51-13.31-16.44-19.96-32.81-19.96-15.45,0-26.92,5.66-34.41,16.98-.15-5.35-2.03-9.44-5.62-12.27-3.59-2.83-8.07-4.24-13.42-4.24-5.66,0-10.52,1.57-14.57,4.7-4.05,3.14-6.08,7.68-6.08,13.65v79.38c0,6.27,1.95,10.98,5.85,14.11,3.9,3.14,8.75,4.7,14.57,4.7s10.67-1.57,14.57-4.7c3.9-3.13,5.85-7.84,5.85-14.11v-45.42c0-6.73,1.57-12,4.7-15.83,3.13-3.82,7.38-5.73,12.73-5.73,4.13,0,7.26,1.23,9.41,3.67,2.14,2.45,3.21,6.73,3.21,12.85v50.47c0,6.27,1.95,10.98,5.85,14.11,3.9,3.14,8.75,4.7,14.57,4.7s10.86-1.57,14.68-4.7c3.82-3.13,5.73-7.84,5.73-14.11v-45.42c0-6.73,1.61-12,4.82-15.83,3.21-3.82,7.49-5.73,12.85-5.73,4.13,0,7.26,1.23,9.41,3.67,2.14,2.45,3.21,6.73,3.21,12.85v50.47c0,6.27,1.95,10.98,5.85,14.11,3.9,3.14,8.75,4.7,14.57,4.7s10.67-1.57,14.57-4.7c3.9-3.13,5.85-7.84,5.85-14.11v-49.55c0-17.59-3.37-30.09-10.09-37.51-6.73-7.42-16.29-11.13-28.68-11.13Zm136.5,0c-7.5,0-14.34,1.53-20.53,4.59-6.19,3.06-10.9,7.27-14.11,12.62-.46-5.05-2.49-9.1-6.08-12.16-3.59-3.06-8.3-4.59-14.11-4.59-6.12,0-10.98,1.72-14.57,5.16-3.59,3.44-5.39,7.99-5.39,13.65v120.44c0,5.35,1.91,9.75,5.74,13.19,3.82,3.44,8.87,5.16,15.14,5.16s10.78-1.61,14.45-4.82c3.67-3.21,5.51-7.5,5.51-12.85v-39c3.36,4.9,8.07,8.8,14.11,11.7,6.04,2.9,12.65,4.36,19.84,4.36,9.79,0,18.43-2.37,25.92-7.11,7.49-4.74,13.34-11.51,17.55-20.3,4.2-8.79,6.31-19,6.31-30.63s-2.1-21.94-6.31-30.97c-4.21-9.02-10.09-16.02-17.66-20.99-7.57-4.97-16.17-7.46-25.81-7.46Zm-12.39,86.95c-7.19,0-12.7-2.41-16.52-7.23-3.82-4.82-5.74-11.74-5.74-20.76s1.91-16.21,5.74-21.11c3.82-4.89,9.25-7.34,16.29-7.34s12.46,2.49,16.29,7.46c3.82,4.97,5.73,12.12,5.73,21.45s-1.87,15.68-5.62,20.42c-3.75,4.74-9.14,7.11-16.17,7.11Zm137.88,30.51c12.54,0,23.47-2.41,32.81-7.23,9.33-4.82,16.55-11.66,21.68-20.53,5.12-8.87,7.68-19.27,7.68-31.2s-2.56-22.29-7.68-31.08c-5.13-8.79-12.35-15.56-21.68-20.3-9.33-4.74-20.27-7.11-32.81-7.11s-23.48,2.37-32.81,7.11c-9.33,4.74-16.56,11.51-21.68,20.3-5.13,8.8-7.69,19.16-7.69,31.08s2.56,22.33,7.69,31.2c5.12,8.87,12.39,15.72,21.79,20.53,9.41,4.82,20.3,7.23,32.69,7.23Zm0-30.51c-14.53,0-21.79-9.48-21.79-28.45s7.26-28.45,21.79-28.45,21.79,9.48,21.79,28.45-7.27,28.45-21.79,28.45Zm125.26,30.51c15.6,0,28.02-3.33,37.28-9.98,9.25-6.65,13.88-15.56,13.88-26.73,0-9.94-3.06-17.55-9.18-22.83-6.12-5.28-16.6-9.21-31.43-11.82-8.87-1.68-14.8-3.21-17.78-4.59-2.98-1.38-4.47-3.29-4.47-5.73,0-2.14,1.07-3.79,3.21-4.93,2.14-1.15,5.12-1.72,8.95-1.72s7.15,.42,9.98,1.26c2.83,.84,6.08,2.1,9.75,3.79,5.51,2.6,10.24,3.9,14.22,3.9,3.36,0,6.19-1.45,8.49-4.36,2.29-2.9,3.44-6.5,3.44-10.78,0-6.12-2.37-10.55-7.11-13.31-5.05-3.06-10.82-5.43-17.32-7.11-6.5-1.68-13.19-2.52-20.07-2.52-9.49,0-18.05,1.61-25.69,4.82-7.65,3.21-13.65,7.65-18.01,13.31-4.36,5.66-6.54,12.01-6.54,19.04,0,9.64,3.02,17.09,9.06,22.37,6.04,5.28,15.87,9.22,29.48,11.82,7.65,1.53,13.08,2.72,16.29,3.56,3.21,.84,5.39,1.72,6.54,2.64,1.15,.92,1.72,2.22,1.72,3.9,0,2.14-1.19,3.79-3.56,4.93-2.37,1.15-5.62,1.72-9.75,1.72-5.81,0-10.59-.46-14.34-1.38-3.75-.92-8.07-2.22-12.96-3.9-2.91-1.22-5.36-2.1-7.34-2.64-1.99-.53-4.13-.8-6.42-.8-3.37,0-6.16,1.34-8.37,4.01-2.22,2.68-3.33,6.08-3.33,10.21,0,3.21,.61,6.12,1.84,8.72,1.22,2.6,2.9,4.44,5.05,5.51,5.35,3.37,11.55,5.81,18.58,7.34,7.03,1.53,15.68,2.29,25.92,2.29Zm159.67-38.08c-1.84,0-3.86,.34-6.08,1.03-2.22,.69-4.47,1.49-6.77,2.41-3.98,1.53-7.57,2.72-10.78,3.56-3.21,.84-6.73,1.26-10.55,1.26-7.19,0-12.62-1.61-16.29-4.82-3.67-3.21-6.04-8.49-7.11-15.83h60.57c3.06,0,5.39-.95,7-2.87,1.61-1.91,2.41-4.62,2.41-8.15,0-11.32-2.18-21.18-6.54-29.59-4.36-8.41-10.52-14.91-18.47-19.5-7.95-4.59-17.21-6.88-27.76-6.88s-20.61,2.49-29.25,7.46c-8.64,4.97-15.37,11.93-20.19,20.88-4.82,8.95-7.23,19.08-7.23,30.4,0,11.93,2.52,22.33,7.57,31.2,5.05,8.87,12.23,15.68,21.56,20.42,9.33,4.74,20.26,7.11,32.81,7.11,5.96,0,12.5-.88,19.61-2.64,7.11-1.76,13.27-3.94,18.47-6.54,5.97-3.21,8.95-7.88,8.95-13.99,0-4.43-1.11-8.03-3.33-10.78-2.22-2.75-5.09-4.13-8.6-4.13Zm-39.23-51.85c10.7,0,16.52,6.73,17.43,20.19h-36.02c.61-6.57,2.52-11.59,5.74-15.03,3.21-3.44,7.49-5.16,12.85-5.16Z"/><g><path class="e" d="M127.05,200.05c-5.47-.05-10.33,.03-14.58,.24-4.25,.21-8.22,.49-11.91,.85-2.46,.24-4.86,.51-7.19,.82-2.33,.31-4.66,.6-7,.87-2.34,.27-4.75,.57-7.25,.89-2.5,.33-5.14,.62-7.93,.89-2.71,.26-4.88-.31-6.51-1.73-1.63-1.41-2.56-3.27-2.78-5.57-.09-.9-.06-1.86,.09-2.87,.17-.84,1.04-1.82,2.64-2.93,1.59-1.11,3.72-2.23,6.39-3.36,2.66-1.13,5.81-2.2,9.44-3.22,3.63-1.02,7.52-1.89,11.68-2.63,3.37-9.69,6.91-19.5,10.62-29.44,3.71-9.93,7.48-19.62,11.28-29.06,3.8-9.44,7.52-18.49,11.16-27.13,3.63-8.64,7.05-16.53,10.25-23.68,3.2-7.15,6.1-13.37,8.69-18.68,2.59-5.31,4.74-9.37,6.46-12.19-4.1,1.31-8.07,2.67-11.91,4.08-3.84,1.41-8.18,2.85-13,4.31-.95,.42-1.92,.68-2.91,.78-2.38,.23-4.31-.43-5.79-1.99-1.48-1.55-2.33-3.52-2.56-5.9-.1-1.07,.74-2.41,2.53-4.04,1.79-1.62,4.31-3.36,7.57-5.21,3.26-1.85,7.14-3.72,11.64-5.61,4.5-1.89,9.42-3.67,14.77-5.35,5.35-1.68,11-3.16,16.97-4.45,5.97-1.28,12.03-2.23,18.18-2.83,5.74-.56,10.3-.4,13.66,.47,3.36,.88,5.18,2.75,5.46,5.62,.14,1.4-.14,2.85-.82,4.37-.68,1.52-1.64,2.92-2.89,4.2-1.24,1.28-2.77,2.36-4.59,3.24-1.82,.88-3.76,1.42-5.81,1.62-1.15,.11-2.22,.15-3.22,.13-1-.03-2.07,.01-3.22,.13-3.04,.3-5.86,.63-8.48,1.01-2.62,.38-5.11,.77-7.47,1.16,.24,.8,.39,1.41,.43,1.82,.11,1.15,.01,2.26-.3,3.32-.31,1.07-.63,2.07-.95,3.01-2.03,5.58-4.48,12.31-7.36,20.17-2.88,7.86-5.96,16.22-9.25,25.07-3.28,8.85-6.61,17.84-9.99,26.95-3.38,9.11-6.59,17.71-9.61,25.79-3.03,8.08-5.76,15.29-8.21,21.62-2.45,6.33-4.3,11.13-5.56,14.4,4.64-.04,8.92,.11,12.84,.43,3.93,.32,7.31,.86,10.16,1.62,2.85,.76,5.12,1.76,6.82,3,1.69,1.25,2.63,2.73,2.79,4.45,.12,1.23-.17,2.48-.88,3.75-.71,1.27-1.67,2.44-2.89,3.51-1.22,1.07-2.63,1.95-4.22,2.65-1.59,.69-3.25,1.12-4.97,1.29-1.89,.18-3.7,.11-5.43-.22-1.73-.33-3.43-.49-5.08-.5Z"/><path class="e" d="M375.64,19.88c.22,2.22,.13,4.92-.27,8.11-.39,3.19-1.09,6.53-2.07,10.02-.99,3.49-2.24,6.99-3.76,10.5-1.52,3.5-3.35,6.71-5.47,9.6-2.12,2.9-4.5,5.31-7.13,7.22-2.63,1.91-5.55,3.03-8.75,3.34-.74,.07-1.71,.1-2.91,.1-1.2,0-2.42-.18-3.65-.52-1.23-.33-2.33-.91-3.28-1.73-.95-.82-1.5-1.97-1.64-3.44-.1-.99,.06-2.16,.46-3.53,.41-1.36,1.22-2.98,2.45-4.84,1.32-1.78,2.73-3.89,4.23-6.32,1.5-2.42,2.83-4.94,3.99-7.53,1.15-2.6,2.09-5.13,2.8-7.61,.71-2.47,.98-4.65,.79-6.54-.23-2.38-.97-4.23-2.22-5.56-1.25-1.33-3.23-1.86-5.94-1.6-3.53,.34-7.4,1.88-11.61,4.61-4.21,2.73-8.54,6.34-12.99,10.83-4.45,4.49-8.92,9.67-13.4,15.54-4.49,5.86-8.77,12.08-12.85,18.65-4.08,6.57-7.88,13.36-11.38,20.37-3.5,7.01-6.48,13.89-8.93,20.63-2.45,6.74-4.27,13.18-5.46,19.3-1.19,6.12-1.54,11.61-1.07,16.45,.58,5.99,2.65,10.64,6.2,13.94,3.55,3.3,9.02,4.59,16.41,3.87,3.45-.34,8.45-2.17,15-5.5,6.55-3.33,11.98-6.55,16.27-9.66,4.3-3.11,8.61-6.51,12.93-10.21,4.32-3.69,8.43-7.24,12.33-10.65,3.9-3.4,7.45-6.48,10.66-9.24,3.21-2.76,5.88-4.74,8-5.94,.38-.37,.85-.58,1.43-.64,1.23-.12,2.17,.8,2.82,2.77,.65,1.97,1.09,4.22,1.34,6.77,.14,1.4,.12,3.12-.06,5.16-.17,2.05-1.12,4.48-2.83,7.3-.8,1.16-2.31,3.13-4.52,5.91-2.22,2.79-5.01,5.96-8.4,9.52-3.38,3.56-7.29,7.3-11.71,11.21-4.43,3.91-9.27,7.57-14.53,10.98-5.26,3.41-12.13,6.94-20.6,10.58-8.47,3.64-15.95,5.78-22.43,6.41-7.63,.74-14.25,.45-19.85-.87-5.6-1.32-10.28-3.45-14.05-6.4-3.77-2.95-6.67-6.62-8.72-11.02-2.04-4.4-3.33-9.31-3.86-14.73-.65-6.73-.33-14.05,.97-21.97,1.3-7.91,3.39-16.03,6.27-24.35,2.88-8.32,6.45-16.7,10.73-25.16,4.27-8.45,9.07-16.61,14.4-24.46,5.33-7.85,11.09-15.23,17.3-22.13,6.21-6.9,12.66-13,19.35-18.29,6.69-5.29,13.53-9.6,20.49-12.93,6.97-3.33,13.94-5.33,20.92-6.01,3.45-.34,6.77-.26,9.96,.21,3.19,.48,6.05,1.46,8.55,2.96,2.51,1.5,4.58,3.59,6.21,6.3,1.63,2.7,2.64,6.1,3.04,10.21Z"/><path class="e" d="M494.2,129.54c-1.34,1.54-3.12,3.66-5.35,6.36-2.22,2.7-4.78,5.64-7.66,8.82-2.88,3.18-5.97,6.4-9.25,9.66-3.29,3.26-6.68,6.26-10.19,9.01-3.5,2.74-6.99,5.05-10.45,6.92-3.47,1.87-6.8,2.96-10,3.27-2.88,.28-5.4-.1-7.57-1.13-2.17-1.03-4.03-2.47-5.58-4.31-1.55-1.84-2.77-3.98-3.67-6.42-.9-2.44-1.48-4.97-1.73-7.6-.17-1.72-.21-3.44-.13-5.15,.08-1.71,.34-3.33,.77-4.86-2.21,3.7-4.76,7.53-7.65,11.5-2.89,3.97-6.05,7.63-9.5,10.99-3.45,3.36-7.1,6.2-10.98,8.53-3.88,2.32-7.91,3.69-12.09,4.1-2.14,.21-4.66,.02-7.58-.57-2.92-.59-5.74-1.74-8.48-3.46-2.74-1.72-5.12-4.06-7.15-7.01-2.03-2.95-3.26-6.68-3.7-11.2-.33-3.36-.21-7.44,.37-12.22,.57-4.78,1.66-9.79,3.26-15.05,1.6-5.25,3.78-10.5,6.55-15.74,2.76-5.24,6.17-10.03,10.23-14.36,4.05-4.33,8.8-7.98,14.22-10.95,5.43-2.97,11.63-4.8,18.61-5.48,3.61-.35,6.82-.21,9.61,.43,2.8,.64,5.19,1.4,7.18,2.28,2.26,1.11,4.29,2.36,6.08,3.76,1.32-.87,2.69-1.71,4.11-2.51,1.18-.69,2.42-1.33,3.73-1.92,1.31-.58,2.46-.92,3.44-1.02,3.12-.3,5.75,.31,7.89,1.84s3.31,3.33,3.51,5.38c.06,.58,.06,1.03,0,1.37-.26,1.6-.7,3.63-1.33,6.1-.63,2.47-1.34,5.21-2.12,8.22-.78,3.02-1.58,6.16-2.38,9.43-.8,3.27-1.51,6.47-2.11,9.59-.61,3.13-1.07,6.05-1.39,8.77-.32,2.72-.38,5.03-.2,6.92,.24,2.46,.85,4.45,1.82,5.98,.98,1.52,2.45,2.19,4.42,1.99,1.23-.12,2.65-.65,4.26-1.59,1.61-.94,3.33-2.17,5.17-3.67,1.84-1.5,3.73-3.2,5.66-5.09,1.93-1.89,3.8-3.79,5.6-5.7,4.2-4.55,8.63-9.7,13.29-15.46,1.21-1.19,2.43-1.85,3.66-1.97,1.64-.16,3.09,.51,4.36,2,1.26,1.49,1.99,3.22,2.18,5.19,.22,2.3-.37,4.31-1.78,6.02Zm-88.42-23.47c-3.86,.38-7.5,1.72-10.92,4.04-3.42,2.32-6.37,5.22-8.85,8.69-2.48,3.47-4.35,7.28-5.6,11.42-1.26,4.14-1.69,8.22-1.3,12.24,.16,1.64,.43,3.34,.8,5.08,.38,1.75,1.01,3.32,1.89,4.73,.88,1.41,2.05,2.54,3.5,3.39,1.45,.85,3.32,1.17,5.62,.94,1.8-.18,3.84-1.18,6.11-3.02,2.26-1.84,4.57-4.13,6.91-6.89,2.34-2.75,4.6-5.75,6.77-8.99,2.17-3.24,4.1-6.39,5.79-9.45,1.69-3.06,3.04-5.81,4.05-8.22,1.01-2.42,1.46-4.16,1.36-5.23-.15-1.56-.82-2.92-2.01-4.09-1.19-1.17-2.61-2.13-4.26-2.88-1.65-.75-3.38-1.27-5.18-1.55-1.81-.28-3.37-.36-4.68-.23Z"/><path class="e" d="M497.27,89.59c1.3-3.69,3.09-6.52,5.39-8.48,2.29-1.96,4.63-3.06,7.01-3.29,1.97-.19,3.8,.36,5.5,1.64,1.7,1.29,2.68,3.32,2.96,6.11,.1,1.07,.09,2.23-.03,3.48-.13,1.26-.45,2.61-.97,4.07,1.58-2.47,3.94-5.08,7.07-7.83,3.13-2.75,6.63-5.28,10.51-7.61,3.88-2.32,7.91-4.31,12.1-5.96,4.19-1.65,8.21-2.66,12.07-3.04,4.35-.42,8.08,.27,11.2,2.08,3.12,1.81,4.92,5.22,5.41,10.22,.29,2.96,.13,6.08-.46,9.37-.59,3.29-1.45,6.6-2.58,9.95-1.13,3.34-2.42,6.64-3.89,9.89-1.47,3.25-2.93,6.31-4.39,9.19s-2.8,5.51-4.02,7.91c-1.22,2.4-2.16,4.37-2.84,5.93-.94,1.42-1.32,2.99-1.16,4.71,.06,.66,.32,1.21,.78,1.66,.46,.45,1.14,.64,2.04,.55,.57-.06,1.23-.18,1.95-.38,.73-.2,1.59-.71,2.58-1.56,4.27-2.07,8.61-4.57,13.01-7.48,4.4-2.91,8.6-5.95,12.6-9.12,4-3.16,7.65-6.3,10.96-9.39,3.3-3.1,6.04-5.87,8.2-8.32,.6-.64,1.22-1.11,1.85-1.42,.63-.31,1.24-.49,1.81-.55,1.39-.14,2.53,.29,3.42,1.28,.88,.99,1.41,2.31,1.56,3.95,.25,2.54-.28,5.46-1.57,8.73-1.3,3.28-3.54,6.44-6.72,9.48-4.35,3.82-8.34,7.32-11.97,10.49-3.63,3.17-7.36,6.17-11.18,8.98-3.83,2.82-7.96,5.5-12.39,8.04-4.43,2.54-9.68,5.02-15.75,7.44-2.07,.86-3.97,1.55-5.71,2.05-1.73,.5-3.34,.82-4.82,.97-4.35,.42-7.65-.48-9.9-2.7-2.25-2.22-3.58-5.51-4.01-9.87-.06-.57-.09-1.13-.1-1.67-.01-.54,0-1.14,.01-1.8-.08-2.56,.32-5.42,1.22-8.57,.89-3.15,2.03-6.41,3.4-9.78,1.37-3.37,2.85-6.72,4.43-10.06,1.58-3.34,3.03-6.51,4.36-9.5,1.33-2.99,2.41-5.64,3.27-7.96,.85-2.32,1.21-4.18,1.07-5.57-.12-1.23-.57-2.24-1.35-3.04-.78-.79-1.87-1.12-3.27-.99-5.25,.51-10.09,2.56-14.51,6.13-4.42,3.58-8.46,7.85-12.12,12.8-3.66,4.95-6.97,10.14-9.92,15.57-2.95,5.43-5.55,10.28-7.78,14.55-1.38,2.87-2.59,5.91-3.65,9.12-1.05,3.21-2.19,6.22-3.41,9.03-1.22,2.81-2.67,5.19-4.34,7.13-1.68,1.94-3.91,3.05-6.7,3.32-2.87,.28-5.22-.41-7.04-2.05-1.82-1.64-2.85-3.78-3.11-6.41-.14-1.39,.22-3.71,1.06-6.94,.85-3.23,1.97-6.99,3.38-11.27,1.41-4.28,3.01-8.89,4.81-13.83,1.8-4.94,3.6-9.84,5.41-14.7,1.81-4.86,3.54-9.44,5.19-13.74,1.65-4.3,3-7.96,4.03-10.96Z"/></g></svg>
